<?xml version="1.0" encoding="UTF-8" standalone="no"?>
<!-- Created with Inkscape (http://www.inkscape.org/) -->

<svg
    width="300"
    height="300"
    viewBox="0 0 264.58331 264.58331"
    version="1.1"
    id="svg1"
    sodipodi:docname="seamless.svg"
    inkscape:version="1.3-dev (def5eff1, 2022-10-25)"
    xmlns:inkscape="http://www.inkscape.org/namespaces/inkscape"
    xmlns:sodipodi="http://sodipodi.sourceforge.net/DTD/sodipodi-0.dtd"
    xmlns="http://www.w3.org/2000/svg"
    xmlns:svg="http://www.w3.org/2000/svg">
    <sodipodi:namedview
        id="namedview1"
        pagecolor="#ffffff"
        bordercolor="#000000"
        borderopacity="0.25"
        inkscape:showpageshadow="2"
        inkscape:pageopacity="0.0"
        inkscape:pagecheckerboard="0"
        inkscape:deskcolor="#d1d1d1"
        inkscape:document-units="mm"
        inkscape:zoom="0.15937183"
        inkscape:cx="106.66879"
        inkscape:cy="2368.6746"
        inkscape:window-width="2560"
        inkscape:window-height="1377"
        inkscape:window-x="1912"
        inkscape:window-y="-8"
        inkscape:window-maximized="1"
        inkscape:current-layer="layer1" />
    <defs
        id="defs1" />
    <g
        inkscape:label="Layer 1"
        inkscape:groupmode="layer"
        id="layer1"
        transform="translate(-80.482694,-114.50862)">
        <path
            id="rect36"
            style="fill:#ae5cbe;fill-opacity:0.2;stroke-width:11.7591;stroke-linecap:round;stroke-linejoin:round"
            d="m 216.90073,114.50862 c 0.82615,5.47023 5.53302,9.66711 11.23394,9.66711 4.19015,0 7.58403,3.39388 7.58403,7.58403 0,6.28333 5.09272,11.37605 11.37605,11.37605 v -3.79201 c -4.19015,0 -7.58403,-3.39389 -7.58403,-7.58404 0,-6.28332 -5.09273,-11.37605 -11.37605,-11.37605 -3.60154,0 -6.60805,-2.50989 -7.38353,-5.87509 z M 83.519203,231.0276 c -1.02954,0 -2.041738,0.0749 -3.036507,0.20671 v 7.62538 c 0.982289,-0.1917 1.99687,-0.29611 3.038058,-0.29611 3.761847,0 7.197629,1.31157 9.88105,3.50418 l -11.837003,8.84752 a 3.7662362,3.7662362 0 0 0 -1.082105,1.29294 v 3.44786 a 3.7662362,3.7662362 0 0 0 1.082105,1.29294 l 15.190804,11.35331 a 3.7658597,3.7658597 0 0 0 5.269965,-0.76067 3.7658597,3.7658597 0 0 0 -0.7612,-5.27152 l -11.154871,-8.33799 11.155391,-8.33799 a 3.7658597,3.7658597 0 0 0 0.76068,-5.271 3.7658597,3.7658597 0 0 0 -0.25942,-0.30334 c 0.0242,0.0242 0.0611,0.0487 0.0853,0.0729 -4.234593,-5.50292 -10.882304,-9.06352 -18.328083,-9.06352 z m 261.546827,0.20671 c -11.29893,1.49754 -20.08146,11.2175 -20.08146,22.91126 0,-0.16602 0.012,-0.32838 0.0362,-0.48834 a 3.7658597,3.7658597 0 0 0 -0.0238,0.33538 v 22.60792 a 3.7658597,3.7658597 0 0 0 3.76515,3.76515 3.7658597,3.7658597 0 0 0 3.76617,-3.76515 v -22.60792 a 3.7658597,3.7658597 0 0 0 -0.007,-0.10904 c 0.12348,-7.49147 5.44776,-13.63885 12.54497,-15.02388 z m 0,20.97495 a 3.7662362,3.7662362 0 0 0 0,3.44578 z M 197.79905,358.42293 c 0,6.28332 5.09273,11.37605 11.37605,11.37605 4.19016,0 7.58352,3.39388 7.58352,7.58403 0,0.58241 0.0577,1.1501 0.14211,1.70894 h 3.85041 c -0.1268,-0.55009 -0.20051,-1.1202 -0.20051,-1.70894 0,-6.28332 -5.0922,-11.37605 -11.37553,-11.37605 -4.19015,0 -7.58403,-3.39388 -7.58403,-7.58403 z" />
    </g>
</svg>